<?xml version="1.0" encoding="UTF-8"?>
<svg width="140" height="36" viewBox="0 0 140 36" fill="none" xmlns="http://www.w3.org/2000/svg">
  <defs>
    <linearGradient id="g" x1="0" y1="0" x2="140" y2="36" gradientUnits="userSpaceOnUse">
      <stop stop-color="#38bdf8"/>
      <stop offset="1" stop-color="#0ea5e9"/>
    </linearGradient>
    <filter id="glow" x="-50%" y="-50%" width="200%" height="200%">
      <feGaussianBlur stdDeviation="2" result="b"/>
      <feMerge>
        <feMergeNode in="b"/>
        <feMergeNode in="SourceGraphic"/>
      </feMerge>
    </filter>
  </defs>
  <!-- Mark: stylized T (mountain + wave) -->
  <g filter="url(#glow)">
    <path d="M12 6h28a2 2 0 0 1 0 4h-10v20a2 2 0 1 1 -4 0V10H12a2 2 0 1 1 0-4z" fill="url(#g)"/>
    <path d="M6 26c6-6 16-6 22 0 6 6 16 6 22 0" stroke="#7dd3fc" stroke-width="2" stroke-linecap="round"/>
  </g>
  <!-- Wordmark -->
  <g transform="translate(56,9)" fill="#e6f3ff">
    <path d="M0 0h5v3h-2v14H0V3H-2V0H0z"/>
    <path d="M9 17c-3 0-5-2-5-5s2-5 5-5c2 0 3 .7 4 2V7h3v10h-3v-2c-1 1.5-2 2-4 2zm1.1-3c1.9 0 3.3-1.3 3.3-3s-1.4-3-3.3-3S6.8 9.3 6.8 11s1.4 3 3.3 3z"/>
    <path d="M21 7h3v1.4c.8-1 1.9-1.6 3.4-1.6 2.7 0 4.6 2 4.6 5.2V17h-3v-4.4c0-1.8-1-3-2.6-3-1.7 0-2.8 1.2-2.8 3.1V17h-3V7z"/>
    <path d="M36 7h3v10h-3V7zm1.5-4a2 2 0 1 0 0 4 2 2 0 0 0 0-4z"/>
    <path d="M43 7h3v1.5c.7-1 1.8-1.7 3.4-1.7 2.7 0 4.6 2 4.6 5.2V17h-3v-4.4c0-1.8-1-3-2.6-3-1.7 0-2.8 1.2-2.8 3.1V17h-3V7z"/>
  </g>
</svg>
